# xmcd
#
# Track frame offsets:
#	150
#	14681
#	26575
#	36533
#	47536
#	57306
#	72098
#	82759
#	94179
#	104164
#	114686
#	123404
#	134358
#	146064
#	155165
#	165283
#	174056
#	185901
#	199655
#	221880
#	232151
#	245321
#	256359
#	270602
#	282490
#
# Disc length: 3918 seconds
#
# Revision: 0
# Processed by: cddbd v1.5.2PL0 Copyright (c) Steve Scherf et al.
# Submitted via: dBpowerAMP V4.0
#
DISCID=7b0f4c19
DTITLE=Bobby Vinton - Party Music
DYEAR=1976
DGENRE=Polka
TTITLE0=My Melody Of Love
TTITLE1=OB-LA-DI, OB-LA-DA
TTITLE2=Just Because
TTITLE3=You Are My Sunshine
TTITLE4=Tic-Tock Polka
TTITLE5=Paloma Blanca
TTITLE6=Don't Let My Mary Go Around
TTITLE7=That's Amore
TTITLE8=Whose Girl Are You
TTITLE9=Strike Up The Band For Love
TTITLE10=Pennsylvania Polka
TTITLE11=Too Fat Polka
TTITLE12=Polish and Proud
TTITLE13=Strip Polka
TTITLE14=Don't Cry Mary Jo
TTITLE15=Hoop-Dee-Doo
TTITLE16=You Can't Be True and I've Nothing
TTITLE17=The Polish Wedding Song
TTITLE18=Polka Memories Medley
TTITLE19=Love Is The Reason
TTITLE20=Never Ending Song Of Love
TTITLE21=The Most Beautiful Girl
TTITLE22=My Gypsy Love
TTITLE23=Polka Pose
TTITLE24=Beer Barrel Polka
EXTD=
EXTT0=
EXTT1=
EXTT2=
EXTT3=
EXTT4=
EXTT5=
EXTT6=
EXTT7=
EXTT8=
EXTT9=
EXTT10=
EXTT11=
EXTT12=
EXTT13=
EXTT14=
EXTT15=
EXTT16=
EXTT17=
EXTT18=
EXTT19=
EXTT20=
EXTT21=
EXTT22=
EXTT23=
EXTT24=
PLAYORDER=
